<?xml version="1.0" encoding="UTF-8"?>
<svg width="29px" height="32px" viewBox="0 0 29 32" version="1.1" xmlns="http://www.w3.org/2000/svg" xmlns:xlink="http://www.w3.org/1999/xlink">
    <!-- Generator: Sketch 51.3 (57544) - http://www.bohemiancoding.com/sketch -->
    <title>jh-diag-logo-sub-blue32-fade</title>
    <desc>Created with Sketch.</desc>
    <defs>
        <linearGradient x1="100%" y1="44.3028427%" x2="0%" y2="61.791475%" id="linearGradient-1">
            <stop stop-color="#AAABFF" offset="0%"></stop>
            <stop stop-color="#4F50FF" offset="100%"></stop>
        </linearGradient>
    </defs>
    <g id="jh-diag-logo-sub-blue32-fade" stroke="none" stroke-width="1" fill="none" fill-rule="evenodd">
        <path d="M1.6917444,4.14396411 L26.6917444,0.244170104 C27.7831153,0.073925234 28.805857,0.820645428 28.9761018,1.91201634 C28.9920101,2.01399761 29,2.11705735 29,2.22027194 L29,25.879934 C29,26.8654882 28.2820333,27.7041346 27.3082556,27.8560359 L2.3082556,31.7558299 C1.21688469,31.9260748 0.19414303,31.1793546 0.02389816,30.0879837 C0.00798992144,29.9860024 9.00818562e-16,29.8829427 8.8817842e-16,29.7797281 L4.4408921e-16,6.12006595 C3.23393633e-16,5.13451178 0.717966687,4.29586541 1.6917444,4.14396411 Z M13.346489,11.8046407 L13.346489,24.567254 C14.6516745,24.567254 15.7097364,23.5091921 15.7097364,22.2040066 L15.7097364,11.8046407 L13.346489,11.8046407 Z M17.7949547,24.4329107 L20.1582021,24.4329107 L20.1582021,18.7355602 C20.1582021,17.4303747 19.1001402,16.3723128 17.7949547,16.3723128 L17.7949547,24.4329107 Z M10.0796471,24.4329107 C10.7322398,24.4329107 11.2612708,23.9216566 11.2612708,23.2909927 C11.2612708,22.6603288 10.7322398,22.1490746 10.0796471,22.1490746 C9.42705431,22.1490746 8.89802336,22.6603288 8.89802336,23.2909927 C8.89802336,23.9216566 9.42705431,24.4329107 10.0796471,24.4329107 Z M14.5281127,9.78949126 C15.1807055,9.78949126 15.7097364,9.27823714 15.7097364,8.64757323 C15.7097364,8.01690931 15.1807055,7.5056552 14.5281127,7.5056552 C13.87552,7.5056552 13.346489,8.01690931 13.346489,8.64757323 C13.346489,9.27823714 13.87552,9.78949126 14.5281127,9.78949126 Z" id="Combined-Shape" fill="url(#linearGradient-1)" fill-rule="nonzero"></path>
    </g>
</svg>