<?xml version="1.0" encoding="UTF-8"?>
<svg width="30px" height="32px" viewBox="0 0 30 32" version="1.1" xmlns="http://www.w3.org/2000/svg" xmlns:xlink="http://www.w3.org/1999/xlink">
    <!-- Generator: Sketch 51.3 (57544) - http://www.bohemiancoding.com/sketch -->
    <title>jh-diag-logo-sub-blue32</title>
    <desc>Created with Sketch.</desc>
    <defs></defs>
    <g id="jh-diag-logo-sub-blue32" stroke="none" stroke-width="1" fill="none" fill-rule="evenodd">
        <path d="M1.69398517,4.14575031 L26.9114836,0.241311414 C28.0030468,0.0723040887 29.0249412,0.820183424 29.1939485,1.91174666 C29.2096253,2.01299781 29.2174984,2.11530392 29.2174984,2.2177615 L29.2174984,25.8781369 C29.2174984,26.8645503 28.4983117,27.7036584 27.5235133,27.854587 L2.30601483,31.7590259 C1.21445159,31.9280332 0.192557245,31.1801539 0.0235499192,30.0885906 C0.00787314961,29.9873395 1.34481506e-15,29.8850334 1.33226763e-15,29.7825758 L4.4408921e-16,6.12220039 C7.61343957e-16,5.13578699 0.719186742,4.29667887 1.69398517,4.14575031 Z M13.446587,11.8048094 L13.446587,24.5674226 C14.7615613,24.5674226 15.8275586,23.5014253 15.8275586,22.186451 L15.8275586,11.8048094 L13.446587,11.8048094 Z M17.9284159,24.4330793 L20.3093875,24.4330793 L20.3093875,18.7534531 C20.3093875,17.4384788 19.2433902,16.3724815 17.9284159,16.3724815 L17.9284159,24.4330793 Z M10.1552439,24.4330793 C10.812731,24.4330793 11.3457297,23.9218252 11.3457297,23.2911613 C11.3457297,22.6604974 10.812731,22.1492433 10.1552439,22.1492433 C9.4977567,22.1492433 8.96475805,22.6604974 8.96475805,23.2911613 C8.96475805,23.9218252 9.4977567,24.4330793 10.1552439,24.4330793 Z M14.6370728,9.7896599 C15.2945599,9.7896599 15.8275586,9.27840578 15.8275586,8.64774187 C15.8275586,8.01707796 15.2945599,7.50582384 14.6370728,7.50582384 C13.9795856,7.50582384 13.446587,8.01707796 13.446587,8.64774187 C13.446587,9.27840578 13.9795856,9.7896599 14.6370728,9.7896599 Z" id="Combined-Shape" fill="#4949FF" fill-rule="nonzero"></path>
    </g>
</svg>