<?xml version="1.0" encoding="utf-8"?>
<!-- Generator: Adobe Illustrator 22.0.1, SVG Export Plug-In . SVG Version: 6.00 Build 0)  -->
<svg version="1.1" id="Layer_1" xmlns="http://www.w3.org/2000/svg" xmlns:xlink="http://www.w3.org/1999/xlink" x="0px" y="0px"
	 viewBox="0 0 14 11.9" style="enable-background:new 0 0 14 11.9;" xml:space="preserve">
<style type="text/css">
	.st0{fill:#47A7FF;}
</style>
<g>
	<g>
		<path class="st0" d="M9.4,6.9c0.3,0,0.5,0.1,0.7,0.4c0.2,0.3,0.3,0.6,0.3,1c0,0.4-0.1,0.7-0.3,1C9.9,9.5,9.7,9.6,9.4,9.6
			c-0.3,0-0.5-0.1-0.7-0.4C8.5,9,8.4,8.7,8.4,8.3c0-0.4,0.1-0.7,0.3-1C8.9,7,9.2,6.9,9.4,6.9 M12.9,3.3c0.7,0.8,1.1,1.8,1.1,3
			c0,0.7-0.1,1.4-0.3,2c-0.2,0.6-0.4,1.1-0.7,1.5c-0.3,0.4-0.6,0.7-1,1c-0.4,0.3-0.7,0.5-1.1,0.6c-0.3,0.1-0.7,0.2-1.1,0.3
			c-0.4,0.1-0.7,0.1-0.9,0.1c-0.2,0-0.4,0-0.7,0c-0.1,0-0.2,0-0.5,0c-0.3,0-0.6,0-0.8,0s-0.5,0-0.8,0c-0.3,0-0.5,0-0.5,0
			c-0.2,0-0.5,0-0.7,0c-0.2,0-0.5-0.1-0.9-0.1c-0.4-0.1-0.8-0.2-1.1-0.3c-0.3-0.1-0.7-0.3-1.1-0.6c-0.4-0.3-0.7-0.6-1-1
			C0.7,9.4,0.4,8.9,0.3,8.3C0.1,7.7,0,7,0,6.3c0-1.2,0.4-2.1,1.1-3C1,3.3,1,2.9,1.1,2.1C1.2,1.4,1.3,0.7,1.6,0
			c0.9,0.1,2.1,0.6,3.5,1.6C5.5,1.5,6.2,1.4,7,1.4c0.9,0,1.5,0.1,1.9,0.2c0.6-0.4,1.2-0.8,1.8-1c0.6-0.3,1-0.4,1.3-0.5L12.4,0
			c0.3,0.6,0.4,1.4,0.5,2.1C13,2.9,13,3.3,12.9,3.3 M7,11.2c1.7,0,3-0.2,3.8-0.6c0.9-0.4,1.3-1.2,1.3-2.5c0-0.7-0.3-1.3-0.8-1.8
			c-0.3-0.3-0.6-0.4-1-0.5c-0.4-0.1-0.9-0.1-1.7,0C7.8,5.8,7.3,5.8,7,5.8c-0.4,0-0.8,0-1.3-0.1c-0.5,0-0.9-0.1-1.2-0.1
			c-0.3,0-0.6,0-1,0.1C3.2,5.9,2.9,6,2.7,6.2C2.2,6.7,1.9,7.3,1.9,8.1c0,1.3,0.4,2.1,1.3,2.5C4,11,5.3,11.2,7,11.2L7,11.2 M4.6,6.9
			c0.3,0,0.5,0.1,0.7,0.4c0.2,0.3,0.3,0.6,0.3,1c0,0.4-0.1,0.7-0.3,1C5.1,9.5,4.9,9.6,4.6,9.6c-0.3,0-0.5-0.1-0.7-0.4
			C3.7,9,3.6,8.7,3.6,8.3c0-0.4,0.1-0.7,0.3-1C4.1,7,4.3,6.9,4.6,6.9"/>
	</g>
</g>
</svg>
