<?xml version="1.0" encoding="UTF-8"?>
<svg width="160px" height="100px" viewBox="0 0 160 100" version="1.1" xmlns="http://www.w3.org/2000/svg" xmlns:xlink="http://www.w3.org/1999/xlink">
    <!-- Generator: Sketch 51.2 (57519) - http://www.bohemiancoding.com/sketch -->
    <title>icon-Behance-black</title>
    <desc>Created with Sketch.</desc>
    <defs></defs>
    <g id="icon-Behance-black" stroke="none" stroke-width="1" fill="none" fill-rule="evenodd">
        <g id="Group" fill="#000000" fill-rule="nonzero">
            <path d="M46.1977699,0 C50.8755357,0 55.1280501,0.386274296 58.9939723,1.23607775 C62.8212353,2.04725377 66.1072691,3.3992138 68.8907331,5.29195785 C71.6355378,7.14607447 73.761795,9.65685739 75.2695046,12.7470518 C76.7772143,15.8372461 77.5117395,19.6999891 77.5117395,24.2580258 C77.5117395,29.2023368 76.3906221,33.2968443 74.1483872,36.6188032 C71.9061523,39.9021347 68.5814593,42.6060548 64.1356488,44.691936 C70.1664874,46.4301703 74.6509571,49.4817373 77.5890579,53.8080094 C80.565818,58.1729089 82.0348684,63.3876119 82.0348684,69.5293732 C82.0348684,74.5123116 81.0683879,78.7613289 79.174086,82.3536798 C77.2411249,85.9846582 74.6509571,88.9589703 71.4035825,91.2379886 C68.1562078,93.517007 64.4449226,95.2166139 60.2697266,96.3368093 C56.1331899,97.4183774 51.8420163,97.9977888 47.4735242,97.9977888 L0,97.9977888 L0,0 L46.1977699,0 Z M43.414306,39.5544879 C47.2415689,39.5544879 50.4116251,38.666057 52.9244745,36.8119404 C55.3986647,34.9964512 56.5971006,32.0221391 56.5971006,27.8890041 C56.5971006,25.6099858 56.2105083,23.7172418 55.3986647,22.2493994 C54.5481618,20.7815571 53.4657036,19.6613617 52.0739716,18.8501856 C50.6822396,18.0003822 49.1358708,17.4595982 47.3188874,17.1119513 C45.5405632,16.7643044 43.6849205,16.6097947 41.7519594,16.6097947 L21.5718457,16.6097947 L21.5718457,39.5158604 L43.414306,39.5158604 L43.414306,39.5544879 Z M44.6127418,81.2721118 C46.738999,81.2721118 48.7492786,81.0789747 50.6822396,80.6540729 C52.6152007,80.2291712 54.3162065,79.5725049 55.7852569,78.5681917 C57.2156481,77.602506 58.414084,76.3278008 59.3032461,74.6668214 C60.1924082,73.0058419 60.5790004,70.8813333 60.5790004,68.3319229 C60.5790004,63.2717296 59.1486092,59.7180061 56.326486,57.5162426 C53.5043628,55.3531066 49.7157591,54.310166 45.0766525,54.310166 L21.6105049,54.310166 L21.6105049,81.2721118 L44.6127418,81.2721118 Z" id="XMLID_102_"></path>
            <path d="M112.846268,80.9244649 C115.784369,83.7828947 119.998224,85.2121096 125.449174,85.2121096 C129.392415,85.2121096 132.794427,84.2077965 135.61655,82.2377976 C138.438673,80.2677986 140.178338,78.14329 140.835545,75.9415265 L158.000239,75.9415265 C155.255434,84.4781885 151.041579,90.5813223 145.358674,94.2509282 C139.714427,97.920534 132.833086,99.7746506 124.791968,99.7746506 C119.18638,99.7746506 114.160682,98.8862197 109.637553,97.0707305 C105.114424,95.2552413 101.364479,92.7444584 98.1944231,89.4611269 C95.1016854,86.1391679 92.7048136,82.2377976 91.0038079,77.6411334 C89.3028021,73.0830967 88.4522992,68.0229035 88.4522992,62.5378085 C88.4522992,57.2458506 89.3414613,52.2629122 91.0811263,47.7048755 C92.8594505,43.1082114 95.2949815,39.1295862 98.5036969,35.8076272 C101.712412,32.4470408 105.539675,29.8203756 110.024145,27.8890041 C114.469955,25.9576327 119.379677,24.9919469 124.830627,24.9919469 C130.822806,24.9919469 136.08046,26.1507698 140.603589,28.507043 C145.088059,30.8246888 148.760685,33.9535106 151.660127,37.8935084 C154.559568,41.8335062 156.608507,46.3142881 157.884261,51.3358539 C159.160016,56.3574197 159.623926,61.6107502 159.237334,67.1344726 L108.013865,67.1344726 C108.013865,72.7740773 109.908167,78.1046626 112.846268,80.9244649 Z M135.229957,43.6876228 C132.910404,41.1382125 129.005823,39.747625 124.212079,39.747625 C121.080682,39.747625 118.529174,40.288409 116.441576,41.3313496 C114.431296,42.3742902 112.76895,43.6876228 111.493195,45.23272 C110.217441,46.8164446 109.366938,48.4774241 108.864368,50.2156584 C108.361798,51.9538928 108.052525,53.49899 107.975206,54.8895774 L139.714427,54.8895774 C139.289176,49.9452664 137.58817,46.2756606 135.229957,43.6876228 Z" id="XMLID_99_"></path>
            <rect id="XMLID_98_" x="104.031966" y="6.56666303" width="39.7416799" height="9.65685739"></rect>
        </g>
    </g>
</svg>