<?xml version="1.0" encoding="UTF-8"?>
<svg width="100px" height="100px" viewBox="0 0 100 100" version="1.1" xmlns="http://www.w3.org/2000/svg" xmlns:xlink="http://www.w3.org/1999/xlink">
    <!-- Generator: Sketch 51.2 (57519) - http://www.bohemiancoding.com/sketch -->
    <title>icon-Dribbble-white</title>
    <desc>Created with Sketch.</desc>
    <defs></defs>
    <g id="icon-Dribbble-white" stroke="none" stroke-width="1" fill="none" fill-rule="evenodd">
        <path d="M49.9252616,0 C22.4215247,0 0,22.4215247 0,49.9252616 C0,77.5784753 22.4215247,100 49.9252616,100 C77.5784753,100 100,77.5784753 100,49.9252616 C100,22.4215247 77.5784753,0 49.9252616,0 Z M49.9252616,8.6696562 C59.3423019,8.6696562 68.161435,11.9581465 75.186846,17.3393124 C70.1046338,23.7668161 63.2286996,28.9985052 54.4095665,32.735426 C50.2242152,24.9626308 45.2914798,17.4887892 39.9103139,10.0149477 C43.0493274,9.1180867 46.4872945,8.6696562 49.9252616,8.6696562 Z M31.3901345,13.1539611 C36.9207773,20.4783259 41.8535127,27.9521674 46.1883408,35.5754858 C36.0239163,38.5650224 23.916293,40.0597907 10.0149477,40.2092676 C12.8550075,28.4005979 20.7772795,18.5351271 31.3901345,13.1539611 Z M8.6696562,49.9252616 C8.6696562,49.6263079 8.6696562,49.1778774 8.6696562,48.8789238 C24.6636771,48.8789238 38.5650224,47.0852018 50.0747384,43.348281 C50.9715994,45.2914798 52.0179372,47.3841555 52.9147982,49.3273543 C38.8639761,53.8116592 27.3542601,62.7802691 18.2361734,76.3826607 C12.2571001,69.2077728 8.6696562,60.0896861 8.6696562,49.9252616 Z M49.9252616,91.3303438 C40.3587444,91.3303438 31.5396114,88.0418535 24.5142003,82.5112108 C32.8849028,69.6562033 43.348281,61.2855007 56.3527653,57.3991031 C60.2391629,67.4140508 63.0792227,77.877429 64.8729447,88.490284 C60.2391629,90.284006 55.1569507,91.3303438 49.9252616,91.3303438 Z M72.9446936,84.3049327 C71.1509716,74.4394619 68.4603886,64.8729447 64.8729447,55.6053812 C72.6457399,54.5590433 81.3153961,54.7085202 90.7324365,56.3527653 C88.9387145,68.0119581 82.3617339,78.0269058 72.9446936,84.3049327 Z M61.5844544,47.3841555 C60.5381166,44.9925262 59.4917788,42.7503737 58.445441,40.3587444 C68.0119581,36.1733931 75.7847534,30.4932735 81.6143498,23.3183857 C87.2944694,29.8953662 90.7324365,38.4155456 91.3303438,47.6831091 C80.4185351,45.8893871 70.5530643,45.8893871 61.5844544,47.3841555 Z" id="Shape" fill="#FFFFFF" fill-rule="nonzero"></path>
    </g>
</svg>