<?xml version="1.0" encoding="UTF-8"?>
<svg width="140px" height="98px" viewBox="0 0 140 98" version="1.1" xmlns="http://www.w3.org/2000/svg" xmlns:xlink="http://www.w3.org/1999/xlink">
    <!-- Generator: Sketch 51.2 (57519) - http://www.bohemiancoding.com/sketch -->
    <title>icon-Email-white</title>
    <desc>Created with Sketch.</desc>
    <defs></defs>
    <g id="icon-Email-white" stroke="none" stroke-width="1" fill="none" fill-rule="evenodd">
        <g id="email-bl" fill="#FFFFFF" fill-rule="nonzero">
            <path d="M11,6 L61,45.5 C63.5,47.5 66.5,48 69.5,48 C72.5,48 75.5,47.5 78,45.5 L128,6 C132.5,2.5 131.5,0 126.5,0 L69.5,0 L13,0 C8,0 7,2.5 11,6 Z" id="Shape"></path>
            <path d="M132,16 L77,57.5 C75,59.5 72.5,60 69.5,60 C67,60 64,59.5 62,57.5 L7,16 C3.5,13 0,15 0,20 L0,88.5 C0,93.5 4,98 9.5,98 L70,98 L130,98 C135,98 139.5,94 139.5,88.5 L139.5,20 C139.5,15 136,13 132,16 Z" id="Shape"></path>
        </g>
    </g>
</svg>