<?xml version="1.0" encoding="utf-8"?>
<!-- Generator: Adobe Illustrator 22.0.1, SVG Export Plug-In . SVG Version: 6.00 Build 0)  -->
<svg version="1.1" id="Layer_1" xmlns="http://www.w3.org/2000/svg" xmlns:xlink="http://www.w3.org/1999/xlink" x="0px" y="0px"
	 viewBox="0 0 66.9 66.9" style="enable-background:new 0 0 66.9 66.9;" xml:space="preserve">
<style type="text/css">
	.st0{fill:none;}
	.st1{fill:#47A7FF;}
</style>
<g id="Layer_x0020_1">
	<rect x="-28" y="-28" class="st0" width="122.9" height="122.9"/>
	<path class="st1" d="M33.4,0C15,0,0,15,0,33.4c0,18.5,15,33.5,33.4,33.5c18.5,0,33.5-15,33.5-33.5C66.9,15,51.9,0,33.4,0z
		 M33.4,5.8L33.4,5.8c6.3,0,12.2,2.2,16.9,5.8c-3.4,4.3-8,7.8-13.9,10.3c-2.8-5.2-6.1-10.2-9.7-15.2C28.8,6.1,31.1,5.8,33.4,5.8z
		 M21,8.8L21,8.8c3.7,4.9,7,9.9,9.9,15c-6.8,2-14.9,3-24.2,3.1C8.6,19,13.9,12.4,21,8.8z M5.8,33.4L5.8,33.4c0-0.2,0-0.5,0-0.7
		c10.7,0,20-1.2,27.7-3.7c0.6,1.3,1.3,2.7,1.9,4C26,36,18.3,42,12.2,51.1C8.2,46.3,5.8,40.2,5.8,33.4z M33.4,61.1L33.4,61.1
		c-6.4,0-12.3-2.2-17-5.9C22,46.6,29,41,37.7,38.4c2.6,6.7,4.5,13.7,5.7,20.8C40.3,60.4,36.9,61.1,33.4,61.1z M48.8,56.4L48.8,56.4
		c-1.2-6.6-3-13-5.4-19.2c5.2-0.7,11-0.6,17.3,0.5C59.5,45.5,55.1,52.2,48.8,56.4z M41.2,31.7L41.2,31.7c-0.7-1.6-1.4-3.1-2.1-4.7
		c6.4-2.8,11.6-6.6,15.5-11.4c3.8,4.4,6.1,10.1,6.5,16.3C53.8,30.7,47.2,30.7,41.2,31.7z"/>
</g>
</svg>
