<?xml version="1.0" encoding="UTF-8"?>
<svg width="117px" height="99px" viewBox="0 0 117 99" version="1.1" xmlns="http://www.w3.org/2000/svg" xmlns:xlink="http://www.w3.org/1999/xlink">
    <!-- Generator: Sketch 51.2 (57519) - http://www.bohemiancoding.com/sketch -->
    <title>icon-GitHub-white</title>
    <desc>Created with Sketch.</desc>
    <defs></defs>
    <g id="icon-GitHub-white" stroke="none" stroke-width="1" fill="none" fill-rule="evenodd">
        <g id="github-bl" fill="#FFFFFF" fill-rule="nonzero">
            <path d="M78.5571429,57.5 C81.0642857,57.5 82.7357143,58.3333333 84.4071429,60.8333333 C86.0785714,63.3333333 86.9142857,65.8333333 86.9142857,69.1666667 C86.9142857,72.5 86.0785714,75 84.4071429,77.5 C82.7357143,79.1666667 81.0642857,80 78.5571429,80 C76.05,80 74.3785714,79.1666667 72.7071429,76.6666667 C71.0357143,75 70.2,72.5 70.2,69.1666667 C70.2,65.8333333 71.0357143,63.3333333 72.7071429,60.8333333 C74.3785714,58.3333333 76.8857143,57.5 78.5571429,57.5 M107.807143,27.5 C113.657143,34.1666667 117,42.5 117,52.5 C117,58.3333333 116.164286,64.1666667 114.492857,69.1666667 C112.821429,74.1666667 111.15,78.3333333 108.642857,81.6666667 C106.135714,85 103.628571,87.5 100.285714,90 C96.9428571,92.5 94.4357143,94.1666667 91.0928571,95 C88.5857143,95.8333333 85.2428571,96.6666667 81.9,97.5 C78.5571429,98.3333333 76.05,98.3333333 74.3785714,98.3333333 C72.7071429,98.3333333 71.0357143,98.3333333 68.5285714,98.3333333 C67.6928571,98.3333333 66.8571429,98.3333333 64.35,98.3333333 C61.8428571,98.3333333 59.3357143,98.3333333 57.6642857,98.3333333 C55.9928571,98.3333333 53.4857143,98.3333333 50.9785714,98.3333333 C48.4714286,98.3333333 46.8,98.3333333 46.8,98.3333333 C45.1285714,98.3333333 42.6214286,98.3333333 40.95,98.3333333 C39.2785714,98.3333333 36.7714286,97.5 33.4285714,97.5 C30.0857143,96.6666667 26.7428571,95.8333333 24.2357143,95 C21.7285714,94.1666667 18.3857143,92.5 15.0428571,90 C11.7,87.5 9.19285714,85 6.68571429,81.6666667 C5.85,78.3333333 3.34285714,74.1666667 2.50714286,69.1666667 C0.835714286,64.1666667 0,58.3333333 0,52.5 C0,42.5 3.34285714,35 9.19285714,27.5 C8.35714286,27.5 8.35714286,24.1666667 9.19285714,17.5 C10.0285714,11.6666667 10.8642857,5.83333333 13.3714286,0 C20.8928571,0.833333333 30.9214286,5 42.6214286,13.3333333 C45.9642857,12.5 51.8142857,11.6666667 58.5,11.6666667 C66.0214286,11.6666667 71.0357143,12.5 74.3785714,13.3333333 C79.3928571,10 84.4071429,6.66666667 89.4214286,5 C94.4357143,2.5 97.7785714,1.66666667 100.285714,0.833333333 L103.628571,0 C106.135714,5 106.971429,11.6666667 107.807143,17.5 C108.642857,24.1666667 108.642857,27.5 107.807143,27.5 M58.5,93.3333333 C72.7071429,93.3333333 83.5714286,91.6666667 90.2571429,88.3333333 C97.7785714,85 101.121429,78.3333333 101.121429,67.5 C101.121429,61.6666667 98.6142857,56.6666667 94.4357143,52.5 C91.9285714,50 89.4214286,49.1666667 86.0785714,48.3333333 C82.7357143,47.5 78.5571429,47.5 71.8714286,48.3333333 C65.1857143,48.3333333 61.0071429,48.3333333 58.5,48.3333333 C55.1571429,48.3333333 51.8142857,48.3333333 47.6357143,47.5 C43.4571429,47.5 40.1142857,46.6666667 37.6071429,46.6666667 C35.1,46.6666667 32.5928571,46.6666667 29.25,47.5 C26.7428571,49.1666667 24.2357143,50 22.5642857,51.6666667 C18.3857143,55.8333333 15.8785714,60.8333333 15.8785714,67.5 C15.8785714,78.3333333 19.2214286,85 26.7428571,88.3333333 C33.4285714,91.6666667 44.2928571,93.3333333 58.5,93.3333333 M38.4428571,57.5 C40.95,57.5 42.6214286,58.3333333 44.2928571,60.8333333 C45.9642857,63.3333333 46.8,65.8333333 46.8,69.1666667 C46.8,72.5 45.9642857,75 44.2928571,77.5 C42.6214286,79.1666667 40.95,80 38.4428571,80 C35.9357143,80 34.2642857,79.1666667 32.5928571,76.6666667 C30.9214286,75 30.0857143,72.5 30.0857143,69.1666667 C30.0857143,65.8333333 30.9214286,63.3333333 32.5928571,60.8333333 C34.2642857,58.3333333 35.9357143,57.5 38.4428571,57.5" id="Shape"></path>
        </g>
    </g>
</svg>