<?xml version="1.0" encoding="UTF-8"?>
<svg width="123px" height="100px" viewBox="0 0 123 100" version="1.1" xmlns="http://www.w3.org/2000/svg" xmlns:xlink="http://www.w3.org/1999/xlink">
    <!-- Generator: Sketch 51.2 (57519) - http://www.bohemiancoding.com/sketch -->
    <title>icon-Twitter-black</title>
    <desc>Created with Sketch.</desc>
    <defs></defs>
    <g id="icon-Twitter-black" stroke="none" stroke-width="1" fill="none" fill-rule="evenodd">
        <path d="M60.8089888,30.9193498 C52.9775281,9.00583424 88.9101124,-11.9946182 103.651685,8.09277109 C103.651685,8.09277109 109.640449,8.09277109 119.775281,2.15786062 C119.775281,2.15786062 117.47191,9.91889739 109.179775,15.3972763 C109.179775,15.3972763 115.168539,15.3972763 123,12.2015553 C123,12.2015553 118.393258,19.962592 111.022472,24.9844394 C111.022472,24.9844394 111.022472,36.3977287 109.179775,43.2457024 C107.337079,50.093676 101.808989,70.1810653 84.7640449,83.8770125 C67.7191011,97.5729598 46.988764,100.768681 35.011236,99.8556177 C23.9550562,98.9425545 9.21348315,94.3772388 0,88.8988599 C0,88.8988599 21.1910112,91.1815177 36.8539326,78.3986336 C36.8539326,78.3986336 20.7303371,79.3116968 13.3595506,61.0504338 C13.3595506,61.0504338 18.8876404,61.9634969 24.4157303,60.5939022 C24.4157303,60.5939022 4.14606742,56.9416496 4.14606742,35.4846656 C4.14606742,35.4846656 10.5955056,38.6803866 15.6629213,38.223855 C15.6629213,38.223855 -3.68539326,23.6148446 8.29213483,4.89705007 C8.75280899,4.89705007 27.6404494,30.0062867 60.8089888,30.9193498 Z" id="Shape" fill="#000000" fill-rule="nonzero"></path>
    </g>
</svg>