<?xml version="1.0" encoding="utf-8"?>
<!-- Generator: Adobe Illustrator 22.0.1, SVG Export Plug-In . SVG Version: 6.00 Build 0)  -->
<svg version="1.1" id="Layer_1" xmlns="http://www.w3.org/2000/svg" xmlns:xlink="http://www.w3.org/1999/xlink" x="0px" y="0px"
	 viewBox="0 0 26.8 21.9" style="enable-background:new 0 0 26.8 21.9;" xml:space="preserve">
<style type="text/css">
	.st0{fill:#47A7FF;}
</style>
<g id="Icons">
	<g id="Icons_1_">
		<g>
			<path class="st0" d="M13.2,6.8c-1.7-4.8,6.1-9.4,9.3-5c0,0,1.3,0,3.5-1.3c0,0-0.5,1.7-2.3,2.9c0,0,1.3,0,3-0.7c0,0-1,1.7-2.6,2.8
				c0,0,0,2.5-0.4,4s-1.6,5.9-5.3,8.9c-3.7,3-8.2,3.7-10.8,3.5C5.2,21.7,2,20.7,0,19.5c0,0,4.6,0.5,8-2.3c0,0-3.5,0.2-5.1-3.8
				c0,0,1.2,0.2,2.4-0.1c0,0-4.4-0.8-4.4-5.5c0,0,1.4,0.7,2.5,0.6c0,0-4.2-3.2-1.6-7.3C1.9,1.1,6,6.6,13.2,6.8z"/>
		</g>
	</g>
</g>
</svg>
